<svg xmlns="http://www.w3.org/2000/svg" viewBox="0 0 520.41 107.44"><g id="Layer_2" data-name="Layer 2"><g id="artwork"><path d="M183,51.14c0,.68.41,1.09,1.23,1.22,13.45,2.31,20.65,11.82,20.65,21.47,0,15.76-10.05,27.17-29.62,27.17H128.74V5.35H169c19.84,0,31.52,7.74,31.52,24.86,0,8.56-6.38,17.26-16.3,19.57A1.25,1.25,0,0,0,183,51.14Zm-40.08-5h25.55c11.27,0,17.93-7.06,17.93-15.35,0-7.34-4.48-13.45-14.67-13.45H142.87ZM190.7,73.29c0-8.56-6.93-15.22-19.7-15.22H142.87v31h29.76C183.91,89.05,190.7,82.25,190.7,73.29Z"/><path d="M210.32,72.74V31.44h13V70c0,16.16,6.93,20.65,16,20.65,10.06,0,20.93-10.19,20.93-26.77V31.44h13V101h-13V96.38a26.75,26.75,0,0,1,1.49-9.24c.41-1.22.95-2.44-.13-2.85-.82-.27-1.23.68-1.5,1.22-3.26,6.53-11.55,16.58-24.05,16.58C220.1,102.09,210.32,93.12,210.32,72.74Z"/><path d="M296.15,46.38c4.34-11.14,8.28-16,25.81-16V43.67c-20.24-1.36-26.09,5.84-26.09,24V101h-13V31.44h13v4.62a28,28,0,0,1-1.49,9.1c-.27,1.09-.68,2.17.41,2.45C295.47,47.74,295.87,47.06,296.15,46.38Z"/><path d="M385.4,70H333.49c1,11.14,8.56,20.1,21.2,20.1,9.38,0,14-4.62,16.44-12.63h13.45c-2.85,12.91-12.36,24.59-30.16,24.59-21.88,0-33.83-16.17-33.83-35.87,0-20.92,13.58-35.87,33.56-35.87,15.49,0,31.66,10.19,31.66,34.92A25.05,25.05,0,0,1,385.4,70ZM372.76,59.16c-.81-10.2-7.34-17.4-17.93-17.4-13.05,0-18.75,8-20.66,17.4Z"/><path d="M411.74,59.83c12.5-.95,25.14.55,25-6.65-.13-5.71-3.39-11.42-17.66-11.42-12.23,0-16.44,4.62-17.39,11.42H388.91c2.45-15.9,14.68-22.83,30.71-22.83,15.63,0,30.17,5.43,30.17,31V101H436.74V94.35a22.06,22.06,0,0,1,1.5-8.16c.27-1.22.81-2.31-.14-2.71s-1.36.68-1.63,1.35c-3.94,10.33-13.18,17.26-25.82,17.26-13.18,0-23.91-8.7-23.91-20.52C386.74,65.68,398.43,60.79,411.74,59.83Zm.82,10.47c-8.43,1.22-12.78,4.21-12.78,10.59,0,5.58,4.62,10.74,15.9,9.24,10.6-1.36,20.93-9.1,21.06-26.63C432.53,68.67,423.15,68.8,412.56,70.3Z"/><path d="M457.37,72.74V31.44h13V70c0,16.16,6.93,20.65,16,20.65,10.06,0,20.93-10.19,20.93-26.77V31.44h13V101h-13V96.38a26.75,26.75,0,0,1,1.49-9.24c.41-1.22.95-2.44-.13-2.85-.82-.27-1.23.68-1.5,1.22C504,92,495.68,102.09,483.18,102.09,467.15,102.09,457.37,93.12,457.37,72.74Z"/><path d="M25.06,29.55a5.38,5.38,0,0,0,5.38,5.38H55.51a5.38,5.38,0,0,0,0-10.76H35.82V5.38a5.38,5.38,0,1,0-10.76,0s0,0,0,0V29.52S25.06,29.54,25.06,29.55Z"/><path d="M0,53.72a5.38,5.38,0,0,0,10.76,0s0,0,0,0V29.55s0,0,0,0V5.38A5.38,5.38,0,0,0,0,5.38H0V29.55H0V53.72Z"/><path d="M30.44,96.68H10.75V83.27H55.51a5.38,5.38,0,0,0,0-10.76H5.38A5.38,5.38,0,0,0,0,77.89c0,.1,0,.2,0,.3H0v23.86H0v.3H0a5.37,5.37,0,0,0,5.35,5.08H30.44a5.38,5.38,0,1,0,0-10.76Z"/><path d="M90.69,77.85a29.5,29.5,0,0,0-12.6-24.13,29.5,29.5,0,0,0,12.6-24.13s0,0,0,0,0,0,0,0A29.58,29.58,0,0,0,61.15,0H55.51a5.38,5.38,0,1,0,0,10.76h5.64A18.81,18.81,0,0,1,79.94,29.53v0h0A18.82,18.82,0,0,1,61.15,48.35H30.44a5.38,5.38,0,0,0,0,10.76H61.15A18.81,18.81,0,0,1,79.94,77.88h0v0A18.82,18.82,0,0,1,61.15,96.69H55.51a5.38,5.38,0,1,0,0,10.76h5.64A29.58,29.58,0,0,0,90.69,77.93s0,0,0,0S90.69,77.86,90.69,77.85Z"/></g></g></svg>